<svg width="97" height="107" viewBox="0 0 97 107" fill="none" xmlns="http://www.w3.org/2000/svg">
<path d="M71.0296 87.868C49.0246 100.575 20.8803 93.0346 8.17306 71.0296C-4.5342 49.0246 3.00649 20.8803 25.0115 8.17306C47.0165 -4.5342 75.1607 3.00649 87.868 25.0115C100.575 47.0165 93.0346 75.1607 71.0296 87.868Z" fill="#D2D2D2" stroke="black" stroke-width="4"/>
<path d="M51.2624 34.2568C50.9277 34.3301 50.2898 34.4974 50.0074 34.717C49.6622 34.9994 50.2061 35.355 50.0074 35.5119C49.6622 35.7838 49.4217 36.2754 48.6896 36.2335C47.1626 36.1394 44.8199 34.1627 43.4184 33.4097C45.667 31.0983 42.1111 30.7427 40.7201 30.8682C38.9212 31.0147 35.815 30.8578 34.1939 31.7677C33.0644 32.4057 31.5583 35.0308 30.6484 36.0767C29.3829 37.5304 28.1174 38.7959 27.2912 40.532C24.2686 46.9223 28.9227 54.2538 36.2229 53.3962C38.2519 53.1556 40.375 51.8797 42.1738 53.5635C43.5021 54.8081 42.8014 55.969 43.1465 57.4123C43.4498 58.6673 44.8303 59.4308 45.3114 60.5813C46.2318 62.7881 45.6461 64.1581 44.9977 66.1871C44.1401 68.8541 46.3678 72.0126 47.2254 74.5854C47.6646 75.8823 48.9301 79.5114 50.1852 80.0762C52.1514 80.9652 55.2262 78.2878 56.3976 76.855C57.318 75.7254 57.0147 74.5854 57.6317 73.5291C58.3011 72.3891 59.1378 72.044 59.6084 70.5798C60.1104 68.99 60.6334 68.6031 61.7002 67.4422C63.4154 65.5805 63.1434 64.4928 62.4636 62.286C61.0413 57.7052 66.2078 55.5611 68.5297 52.1934C70.9561 48.6793 66.2601 49.8507 64.4299 48.648C62.5368 47.4138 61.7106 45.0606 60.8007 43.1153C59.8908 41.17 59.1378 38.2416 57.6213 36.6414C56.4499 35.4282 52.9149 34.8635 51.2624 34.2568ZM75.014 65.0053C74.2819 67.4735 73.5498 69.9522 72.8177 72.4205C72.3052 74.1462 70.4959 79.8043 67.944 76.1856C66.9818 74.8051 67.7662 73.0062 68.2996 71.7407C68.9794 70.1405 68.059 69.3352 68.5401 67.8291C69.084 66.093 71.3221 66.0407 72.3784 64.817C73.121 63.9699 73.5707 62.6103 74.1146 61.6167C74.4179 62.7462 74.7212 63.8758 75.014 65.0053Z" fill="white" stroke="black" stroke-width="4"/>
<path d="M87.8676 25.0112C79.9399 11.2895 66.009 3.19447 51.3146 2.12769L45.3009 9.67883L32.4053 14.197L28.9435 22.5848L34.2775 30.0627L34.8422 28.4835C35.794 25.8479 38.2936 24.0804 41.0965 24.0804H49.8922L60.0057 27.6363L63.4885 30.9622V33.0644L68.3308 42.3412L69.7427 41.8183C72.7862 40.6992 75.5473 38.9212 77.8482 36.6308L76.6768 34.8737C76.3003 34.3194 76.7082 33.5664 77.3776 33.5664H80.2014C81.0276 33.5664 81.812 33.9324 82.3454 34.56L84.6463 37.2583C84.866 37.5198 85.0333 37.8126 85.1483 38.1264L87.6898 45.1232L88.903 43.91C89.6665 43.1465 90.0535 42.1111 90.0744 41.0234C90.0848 40.1554 90.4613 39.3291 91.1098 38.7539L92.0406 37.9277C92.2707 37.7185 92.5322 37.5511 92.8145 37.4256C91.8 33.1794 90.1685 28.996 87.8676 25.0112ZM19.0287 26.8101L21.225 24.4569C22.8252 22.7417 23.2854 20.2421 22.386 18.0667C21.4342 15.7658 19.3634 14.2806 17.0625 13.9669C8.94659 21.3298 3.89506 31.2446 2.4413 41.7451C4.15652 43.2511 5.95541 44.8513 5.94495 44.9977C5.92404 45.2696 12.3875 44.1819 12.3875 44.1819L9.06163 39.3082L13.8308 35.8987L19.0287 26.8101ZM23.505 72.6608C25.5758 71.9915 26.7158 69.7638 26.036 67.6825L25.4399 65.8627C25.1784 65.0679 25.1784 64.2103 25.4399 63.4154C26.1825 61.1563 24.7705 58.7613 22.4487 58.3116L17.7946 57.4017L9.30218 50.9487L2.28442 53.2287C2.98515 59.3156 4.90955 65.3712 8.17265 71.0293C11.1952 76.2586 15.0858 80.6722 19.5517 84.1863L21.6434 73.2674L23.505 72.6608Z" fill="white" stroke="black" stroke-width="4"/>
<path d="M42.0078 65.0547L47.6562 103H37.5547L37.0625 96.1797H33.5234L32.9375 103H22.7188L27.7344 65.0547H42.0078ZM36.7812 89.4531C36.2812 85.1562 35.7812 79.8516 35.2812 73.5391C34.2812 80.7891 33.6562 86.0938 33.4062 89.4531H36.7812Z" fill="white"/>
<path d="M49.3438 65.0547H56.3281C60.9844 65.0547 64.1328 65.2344 65.7734 65.5938C67.4297 65.9531 68.7734 66.875 69.8047 68.3594C70.8516 69.8281 71.375 72.1797 71.375 75.4141C71.375 78.3672 71.0078 80.3516 70.2734 81.3672C69.5391 82.3828 68.0938 82.9922 65.9375 83.1953C67.8906 83.6797 69.2031 84.3281 69.875 85.1406C70.5469 85.9531 70.9609 86.7031 71.1172 87.3906C71.2891 88.0625 71.375 89.9297 71.375 92.9922V103H62.2109V90.3906C62.2109 88.3594 62.0469 87.1016 61.7188 86.6172C61.4062 86.1328 60.5703 85.8906 59.2109 85.8906V103H49.3438V65.0547ZM59.2109 71.5469V79.9844C60.3203 79.9844 61.0938 79.8359 61.5312 79.5391C61.9844 79.2266 62.2109 78.2344 62.2109 76.5625V74.4766C62.2109 73.2734 61.9922 72.4844 61.5547 72.1094C61.1328 71.7344 60.3516 71.5469 59.2109 71.5469Z" fill="white"/>
<path fill-rule="evenodd" clip-rule="evenodd" d="M49.3438 103H59.211V85.8906C60.5704 85.8906 61.4063 86.1328 61.7188 86.6172C62.0469 87.1016 62.211 88.3594 62.211 90.3906V103H71.375V92.9922C71.375 89.9297 71.2891 88.0625 71.1172 87.3906C71.0247 86.9837 70.8419 86.5549 70.5688 86.1041C70.3805 85.7934 70.1492 85.4722 69.875 85.1406C69.2032 84.3281 67.8907 83.6797 65.9375 83.1953C68.0938 82.9922 69.5391 82.3828 70.2735 81.3672C70.408 81.1812 70.5301 80.9628 70.64 80.7118C71.13 79.5923 71.375 77.8264 71.375 75.4141C71.375 72.1797 70.8516 69.8281 69.8047 68.3594C68.7735 66.875 67.4297 65.9531 65.7735 65.5938C64.1329 65.2344 60.9844 65.0547 56.3282 65.0547H49.3438V103ZM61.5547 72.1094C61.9922 72.4844 62.211 73.2734 62.211 74.4766V76.5625C62.211 78.2344 61.9844 79.2266 61.5313 79.5391C61.0938 79.8359 60.3204 79.9844 59.211 79.9844V71.5469C60.3516 71.5469 61.1329 71.7344 61.5547 72.1094ZM66.6255 61.6855C69.3309 62.2736 71.5118 63.8148 73.0766 66.0582C74.8473 68.5568 75.375 71.9353 75.375 75.4141C75.375 77.0337 75.2761 78.5304 75.0329 79.845C74.8126 81.0353 74.4243 82.3614 73.6538 83.5113C74.248 84.377 74.7505 85.362 75.0072 86.4583C75.1976 87.2385 75.2661 88.2366 75.3064 89.111C75.3533 90.1319 75.375 91.4329 75.375 92.9922V107H18.1553L24.2283 61.0547H56.3282C60.933 61.0547 64.4996 61.2206 66.6255 61.6855ZM33.5235 96.1797H37.0625L37.5547 103H47.6563L42.0078 65.0547H27.7344L22.7188 103H32.9375L33.5235 96.1797ZM35.2813 73.5391C34.6141 78.3765 34.1138 82.3478 33.7804 85.4531C33.6142 87.0019 33.4895 88.3352 33.4063 89.4531H36.7813C36.636 88.2048 36.4908 86.8715 36.3455 85.4531C35.9908 81.9891 35.636 78.0177 35.2813 73.5391Z" fill="black"/>
</svg>
