<svg width="54" height="60" viewBox="0 0 54 60" fill="none" xmlns="http://www.w3.org/2000/svg">
<rect x="27.9787" y="1.03637" width="27.5008" height="37.47" rx="4.5" transform="rotate(22.769 27.9787 1.03637)" fill="#9E9E9E" stroke="black" stroke-width="3"/>
<rect x="19.6019" y="4.37076" width="27.5008" height="37.47" rx="4.5" transform="rotate(15.0137 19.6019 4.37076)" fill="#D9D9D9" stroke="black" stroke-width="3"/>
<rect x="5.66783" y="11.0592" width="27.5008" height="37.47" rx="4.5" transform="rotate(-6 5.66783 11.0592)" fill="white" stroke="black" stroke-width="3"/>
<path d="M13.735 44.945H15.73C15.52 46.265 15.19 47.45 14.74 48.47C14.245 47.54 13.84 46.52 13.54 45.44L13.735 44.945ZM5.40999 52.085C5.78499 51.785 6.30999 51.485 8.49999 50.735V54.44H10.66V46.775C11.095 47.27 11.59 47.96 11.815 48.335C11.995 48.125 12.175 47.9 12.34 47.675C12.685 48.665 13.09 49.61 13.57 50.45C12.835 51.395 11.875 52.145 10.69 52.715C11.125 53.135 11.83 54.05 12.085 54.5C13.165 53.9 14.08 53.165 14.83 52.28C15.52 53.105 16.33 53.81 17.275 54.365C17.605 53.795 18.28 52.97 18.76 52.565C17.725 52.055 16.84 51.335 16.09 50.465C16.945 48.935 17.515 47.09 17.89 44.945H18.64V42.89H14.365C14.575 42.125 14.725 41.33 14.86 40.52L12.61 40.16C12.31 42.41 11.71 44.555 10.66 45.98V40.4H8.49999V48.635L7.31499 48.965V41.765H5.16999V48.98C5.16999 49.595 4.91499 49.91 4.61499 50.09C4.92999 50.555 5.28999 51.53 5.40999 52.085Z" fill="white"/>
<path d="M25.375 48.92V49.565H19.675V51.275H23.365C22.09 51.845 20.545 52.31 19.105 52.58C19.555 53.03 20.17 53.84 20.485 54.365C22.15 53.915 23.935 53.135 25.375 52.175V54.395H27.55V52.1C28.975 53.06 30.7 53.87 32.35 54.32C32.65 53.81 33.25 53 33.7 52.58C32.335 52.295 30.88 51.83 29.68 51.275H33.325V49.565H27.55V48.92H25.375ZM26.14 44.975V45.365H23.44V44.975H26.14ZM25.945 40.625C26.065 40.91 26.185 41.225 26.29 41.54H24.43L25.045 40.58L22.84 40.145C22.135 41.435 20.92 42.92 19.24 44.06C19.72 44.36 20.41 45.05 20.755 45.515L21.28 45.08V49.16H23.44V48.8H32.95V47.165H28.225V46.745H31.96V45.365H28.225V44.975H31.96V43.595H28.225V43.19H32.665V41.54H28.54C28.375 41.075 28.135 40.52 27.91 40.085L25.945 40.625ZM26.14 43.595H23.44V43.19H26.14V43.595ZM26.14 46.745V47.165H23.44V46.745H26.14Z" fill="white"/>
<path d="M41.89 41.075V45.98H41.02V41.075H35.95V45.98H34.435V48.08H35.89C35.785 49.82 35.44 51.665 34.375 53.03C34.78 53.3 35.62 54.155 35.92 54.59C37.3 52.925 37.81 50.33 37.96 48.08H38.92V52.205C38.92 52.4 38.86 52.475 38.65 52.475C38.47 52.49 37.855 52.49 37.375 52.46C37.645 52.955 37.945 53.84 38.02 54.38C39.01 54.38 39.745 54.335 40.3 54.005C40.6 53.825 40.78 53.6 40.885 53.285C41.335 53.645 41.92 54.215 42.175 54.545C43.375 52.895 43.81 50.3 43.945 48.08H45.085V52.07C45.085 52.265 45.025 52.34 44.815 52.355C44.635 52.355 44.02 52.355 43.54 52.325C43.825 52.85 44.125 53.795 44.2 54.365C45.205 54.365 45.94 54.32 46.51 53.975C47.08 53.615 47.245 53.06 47.245 52.1V48.08H48.55V45.98H47.245V41.075H41.89ZM38.035 43.085H38.92V45.98H38.035V43.085ZM41.02 48.08H41.845C41.77 49.46 41.575 50.93 41.02 52.16V48.08ZM44.005 45.98V43.085H45.085V45.98H44.005Z" fill="white"/>
<path fill-rule="evenodd" clip-rule="evenodd" d="M14.86 40.52C14.7798 41.0013 14.6942 41.4774 14.594 41.945C14.5255 42.2643 14.4502 42.5796 14.365 42.89H18.64V44.945H17.89C17.8704 45.0572 17.8502 45.1685 17.8295 45.279C17.7909 45.4856 17.7503 45.6892 17.7078 45.89C17.6606 46.1125 17.611 46.3315 17.5588 46.547C17.5573 46.553 17.5559 46.559 17.5544 46.565C17.3174 47.5399 17.0278 48.4417 16.675 49.2686C16.6684 49.284 16.6618 49.2995 16.6551 49.3149C16.6153 49.4072 16.5747 49.4986 16.5333 49.5891C16.5282 49.6002 16.5232 49.6112 16.5181 49.6222C16.4509 49.7679 16.3816 49.911 16.3102 50.0517C16.239 50.192 16.1656 50.3297 16.09 50.465C16.1686 50.5562 16.2486 50.6457 16.3302 50.7335C16.3811 50.7883 16.4327 50.8425 16.4848 50.896C16.5473 50.9601 16.6107 51.0233 16.675 51.0855C16.7133 51.1225 16.7518 51.1592 16.7907 51.1955C16.7968 51.2012 16.8029 51.2069 16.809 51.2125C16.8316 51.2335 16.8542 51.2543 16.877 51.275C17.3503 51.7054 17.8679 52.0819 18.4326 52.394C18.54 52.4533 18.6491 52.5104 18.76 52.565C18.3047 52.9491 17.674 53.7111 17.3286 54.275C17.3188 54.291 17.3093 54.3069 17.2999 54.3225C17.2914 54.3368 17.2831 54.351 17.275 54.365C17.2246 54.3354 17.1746 54.3054 17.1251 54.275C17.1133 54.2678 17.1016 54.2606 17.0899 54.2533C16.9485 54.1657 16.8102 54.0746 16.675 53.9802C16.3927 53.7831 16.1237 53.5715 15.8677 53.3463C15.7105 53.2081 15.5582 53.0648 15.4107 52.9167C15.2527 52.758 15.1001 52.5937 14.9528 52.4241C14.9114 52.3765 14.8705 52.3284 14.83 52.28C14.7891 52.3283 14.7477 52.3761 14.7058 52.4235C14.6321 52.5069 14.5568 52.5889 14.48 52.6696C14.4052 52.7482 14.3289 52.8255 14.2512 52.9015C14.1316 53.0185 14.0086 53.1325 13.8822 53.2435C13.8093 53.3075 13.7352 53.3706 13.66 53.4326C13.3136 53.7184 12.943 53.9832 12.5483 54.228C12.4515 54.288 12.3533 54.3468 12.2536 54.4044C12.233 54.4163 12.2124 54.4282 12.1916 54.44C12.1563 54.4601 12.1207 54.4801 12.085 54.5C12.0741 54.4808 12.0624 54.4608 12.05 54.44C11.9248 54.2309 11.7226 53.9438 11.5 53.6544C11.2254 53.2975 10.92 52.9371 10.69 52.715C10.7561 52.6832 10.8215 52.6509 10.8862 52.6179C10.9261 52.5976 10.9658 52.5771 11.0052 52.5563C11.1751 52.4669 11.34 52.3734 11.5 52.2759C11.9873 51.9789 12.4286 51.6444 12.8239 51.2709C12.8257 51.2691 12.8276 51.2674 12.8295 51.2656C12.939 51.1619 13.045 51.0552 13.1474 50.9455C13.1604 50.9316 13.1733 50.9177 13.1861 50.9037C13.189 50.9006 13.1919 50.8974 13.1948 50.8943C13.2867 50.7939 13.3756 50.6911 13.4617 50.5858C13.4983 50.541 13.5344 50.4957 13.57 50.45C13.4198 50.1872 13.277 49.9142 13.1411 49.6327C13.1376 49.6255 13.1341 49.6182 13.1306 49.6109C13.0944 49.5357 13.0587 49.4599 13.0235 49.3836C13.0203 49.3766 13.0171 49.3696 13.0139 49.3627C12.87 49.0493 12.7342 48.7264 12.6057 48.3966C12.5495 48.2521 12.4946 48.1063 12.4412 47.9593C12.4069 47.865 12.3732 47.7702 12.34 47.675C12.175 47.9 11.995 48.125 11.815 48.335C11.7504 48.2273 11.6635 48.0936 11.5621 47.9461C11.542 47.9167 11.5212 47.8868 11.5 47.8564C11.3217 47.6016 11.1075 47.3148 10.8938 47.0521C10.8264 46.9694 10.7592 46.8891 10.6931 46.8129C10.682 46.8001 10.671 46.7875 10.66 46.775V54.44H8.49998V50.735C8.39058 50.7725 8.28534 50.8088 8.18406 50.8441C8.07452 50.8822 7.96962 50.9191 7.86912 50.9549C7.81219 50.9751 7.75668 50.995 7.70253 51.0145C7.68825 51.0196 7.67407 51.0247 7.65998 51.0298C6.54312 51.4333 6.01925 51.679 5.6917 51.8845C5.65334 51.9086 5.61767 51.9321 5.58406 51.9553C5.5546 51.9756 5.52671 51.9956 5.49998 52.0155C5.46863 52.0388 5.43886 52.0619 5.40998 52.085C5.30741 51.6106 5.02952 50.8294 4.75425 50.3221C4.70746 50.2359 4.66075 50.1576 4.61498 50.09C4.65395 50.0666 4.69216 50.041 4.72916 50.0127C4.97693 49.8231 5.16998 49.5151 5.16998 48.98V41.765H7.31498V48.965L8.49998 48.635V40.4H10.66V45.98C10.6819 45.9503 10.7035 45.9203 10.725 45.89C10.9947 45.5096 11.2338 45.0808 11.4451 44.6147C11.4636 44.5739 11.4819 44.5327 11.5 44.4913C11.5524 44.3713 11.603 44.2489 11.6519 44.1244C11.7211 43.9482 11.7868 43.7678 11.8491 43.5834C11.9095 43.4047 11.9668 43.2224 12.0211 43.0369C12.0914 42.7963 12.1567 42.5505 12.217 42.3004C12.2454 42.1828 12.2727 42.0643 12.299 41.945C12.3409 41.7543 12.3802 41.5614 12.4169 41.3668C12.4769 41.0485 12.5301 40.7256 12.5768 40.4C12.5882 40.3201 12.5993 40.2401 12.61 40.16L14.86 40.52ZM18.0064 39.89L18.3156 38.0347L10.0433 36.7112L9.95143 37.4H5.49998V38.765H2.16998V48.0584L0.353516 49.1483L2.11535 51.7491C2.12095 51.7593 2.13402 51.7836 2.15382 51.8246C2.19311 51.906 2.24035 52.0145 2.28959 52.1411C2.39652 52.416 2.46099 52.6415 2.47774 52.719L3.50146 57.4537L5.49998 55.8549V57.44H10.3028L10.9415 58.5671L12.9704 57.44H13.66V57.0562C14.0554 56.8316 14.437 56.5901 14.8039 56.3309C15.1082 56.5505 15.4254 56.7578 15.7557 56.9519L18.3587 58.4806L18.8975 57.5501L19.079 57.8526L21.2677 57.2611C21.633 57.1624 22.0032 57.0503 22.375 56.9257V57.395H30.55V56.9047C30.8867 57.0189 31.2242 57.1225 31.5606 57.2143L33.7731 57.8177L34.1085 57.2475L35.7005 59.556L37.504 57.38H38.02C38.0389 57.38 38.0581 57.38 38.0777 57.38C38.6505 57.3803 39.5053 57.3807 40.4032 57.1585L42.2477 59.5455L43.8336 57.365H44.2C44.2189 57.365 44.2382 57.365 44.2577 57.365C45.1548 57.3654 46.701 57.3661 48.0634 56.5415L48.0878 56.5267L48.112 56.5115C48.9489 55.9829 49.5612 55.2313 49.9045 54.3044C50.2027 53.4992 50.245 52.6964 50.245 52.1V51.08H51.55V42.98H50.245V38.075H32.95V38.54H30.4884L29.4582 36.5483L25.5511 37.622L21.2624 36.776L20.2075 38.7063C20.005 39.0767 19.7344 39.482 19.3994 39.89H18.0064ZM19.675 51.275H23.365C23.2889 51.309 23.2119 51.3426 23.134 51.3759C22.8634 51.4913 22.5822 51.602 22.2936 51.7072C21.9636 51.8275 21.6241 51.9405 21.28 52.0451C21.15 52.0846 21.0193 52.123 20.8883 52.16C20.5779 52.2478 20.2653 52.3284 19.9542 52.401C19.861 52.4228 19.7679 52.4438 19.675 52.4642C19.4837 52.506 19.2935 52.5447 19.105 52.58C19.2792 52.7543 19.4782 52.9825 19.675 53.2273C19.9581 53.5795 20.2365 53.9659 20.4298 54.275C20.4491 54.3058 20.4675 54.3358 20.485 54.365C20.5911 54.3363 20.6977 54.3063 20.8046 54.275C21.1174 54.1834 21.4334 54.0807 21.7495 53.9678C21.9583 53.8932 22.167 53.8143 22.375 53.7311C22.7083 53.5979 23.0394 53.4541 23.365 53.3007C23.6155 53.1826 23.8627 53.059 24.1049 52.9302C24.1811 52.8897 24.2568 52.8487 24.3319 52.8072C24.4052 52.7668 24.4778 52.7259 24.55 52.6845C24.6188 52.6451 24.6871 52.6052 24.7549 52.565C24.9674 52.4388 25.1745 52.3086 25.375 52.175V54.395H27.55V52.1C27.5872 52.1251 27.6247 52.1501 27.6624 52.175C27.864 52.3082 28.0713 52.4384 28.2832 52.565C28.3137 52.5832 28.3443 52.6014 28.375 52.6194C28.4773 52.6796 28.5806 52.739 28.6848 52.7974C28.7617 52.8405 28.839 52.8831 28.9168 52.9251C29.167 53.0603 29.4219 53.1902 29.68 53.3137C29.8428 53.3917 30.007 53.4672 30.172 53.5399C30.2975 53.5953 30.4236 53.6491 30.55 53.7012C31.0942 53.9257 31.6449 54.1194 32.1889 54.275C32.2427 54.2904 32.2964 54.3054 32.35 54.32C32.3587 54.3052 32.3676 54.2902 32.3768 54.275C32.6018 53.9009 32.9716 53.3857 33.325 52.9763C33.4351 52.8487 33.5437 52.7313 33.6458 52.6318C33.6641 52.6139 33.6821 52.5967 33.7 52.58C33.6959 52.5792 33.6919 52.5783 33.6878 52.5775C33.5675 52.5522 33.4465 52.5256 33.325 52.4977C33.1761 52.4635 33.0265 52.4272 32.8766 52.3891C32.3845 52.2638 31.8898 52.1181 31.4078 51.9561C31.2576 51.9056 31.1086 51.8535 30.9614 51.8C30.8218 51.7492 30.6837 51.6972 30.5476 51.6439C30.2476 51.5265 29.957 51.4031 29.68 51.275H33.325V49.565H27.55V48.92H25.375V49.565H19.675V51.275ZM21.28 49.16H23.44V48.8H32.95V47.165H28.225V46.745H31.96V45.365H28.225V44.975H31.96V43.595H28.225V43.19H32.665V41.54H28.54C28.4799 41.3708 28.41 41.1897 28.3344 41.0067C28.3165 40.9635 28.2983 40.9201 28.2799 40.8767C28.2618 40.8342 28.2435 40.7918 28.225 40.7496C28.1401 40.5557 28.0512 40.3651 27.9634 40.19C27.9455 40.1543 27.9277 40.1193 27.91 40.085L25.945 40.625C25.9982 40.7514 26.0515 40.8838 26.1034 41.0194C26.1157 41.0515 26.1279 41.0837 26.14 41.1161C26.1666 41.1874 26.1928 41.2594 26.2184 41.3317C26.2429 41.4009 26.2668 41.4705 26.29 41.54H24.43L25.045 40.58L22.84 40.145C22.8318 40.16 22.8235 40.175 22.8152 40.19C22.7729 40.2663 22.7289 40.3433 22.6831 40.4209C22.6678 40.4467 22.6523 40.4726 22.6367 40.4986C22.3634 40.9517 22.0305 41.422 21.64 41.8877C21.6156 41.9168 21.5909 41.9459 21.5661 41.975C21.5525 41.9909 21.5388 42.0068 21.5251 42.0227C21.2712 42.3163 20.9944 42.6072 20.695 42.89C20.6118 42.9687 20.5267 43.0467 20.44 43.124C20.292 43.2558 20.139 43.3854 19.981 43.5123C19.8056 43.6531 19.6241 43.7905 19.4364 43.9236C19.3791 43.9643 19.3212 44.0047 19.2627 44.0445C19.2551 44.0497 19.2476 44.0549 19.24 44.06C19.243 44.0619 19.2461 44.0638 19.2491 44.0657C19.4304 44.1802 19.6407 44.3492 19.8508 44.54C19.9921 44.6684 20.1334 44.8067 20.2655 44.945C20.3087 44.9901 20.3508 45.0352 20.3917 45.08C20.4028 45.0922 20.4139 45.1044 20.4249 45.1166C20.4299 45.1222 20.435 45.1278 20.44 45.1334C20.5111 45.2128 20.5777 45.2907 20.6381 45.365C20.6575 45.3888 20.6762 45.4122 20.6942 45.4352C20.7154 45.4625 20.7357 45.4891 20.755 45.515L21.28 45.08V49.16ZM23.44 46.745V47.165H26.14V46.745H23.44ZM26.14 45.365V44.975H23.44V45.365H26.14ZM26.14 43.595V43.19H23.44V43.595H26.14ZM34.435 48.08H35.89C35.8756 48.3185 35.8567 48.559 35.832 48.8C35.8259 48.86 35.8194 48.92 35.8125 48.98C35.7983 49.1045 35.7824 49.2291 35.7648 49.3535C35.7548 49.4241 35.7442 49.4946 35.733 49.565C35.7137 49.6859 35.6927 49.8065 35.6698 49.9266C35.5949 50.3184 35.4994 50.705 35.3778 51.08C35.3565 51.1454 35.3345 51.2104 35.3117 51.275C35.2487 51.4532 35.1795 51.6285 35.1034 51.8C35.0185 51.9914 34.925 52.1781 34.8222 52.3592C34.6894 52.593 34.5409 52.8173 34.375 53.03C34.4562 53.0842 34.555 53.1619 34.6633 53.255C34.8067 53.3782 34.967 53.5284 35.1258 53.6868C35.3217 53.8821 35.5155 54.0899 35.6731 54.275C35.7727 54.392 35.8579 54.5 35.92 54.59C35.9792 54.5185 36.0369 54.4453 36.093 54.3704C36.1166 54.3389 36.14 54.3071 36.1631 54.275C36.2186 54.1978 36.2726 54.1189 36.325 54.0386C36.6035 53.6115 36.8383 53.1417 37.0357 52.6451C37.0932 52.5005 37.1474 52.3537 37.1987 52.205C37.2578 52.0335 37.3129 51.8596 37.3643 51.6837C37.3907 51.5932 37.4161 51.5021 37.4406 51.4107C37.5342 51.0606 37.6137 50.7044 37.6808 50.3465C37.7259 50.1063 37.7654 49.8655 37.7999 49.6252C37.807 49.576 37.8138 49.5269 37.8205 49.4778C37.843 49.3113 37.8632 49.1452 37.8813 48.98C37.9098 48.7186 37.9329 48.4594 37.9513 48.2044C37.9543 48.1628 37.9572 48.1213 37.96 48.08H38.92V52.205C38.92 52.2637 38.9146 52.3115 38.9012 52.3496C38.8703 52.4383 38.7968 52.475 38.65 52.475C38.611 52.4782 38.5515 52.4808 38.4774 52.4825C38.3987 52.4843 38.3035 52.4851 38.1988 52.4848C38.162 52.4847 38.1241 52.4844 38.0853 52.484C38.0781 52.4839 38.0709 52.4839 38.0636 52.4838C38.0492 52.4836 38.0346 52.4834 38.02 52.4832C37.81 52.4802 37.5802 52.4728 37.375 52.46C37.4594 52.6148 37.5468 52.8077 37.6293 53.0163C37.6626 53.1005 37.6951 53.1872 37.7262 53.2749C37.7328 53.2935 37.7394 53.3121 37.7459 53.3308C37.8755 53.7043 37.9799 54.0914 38.02 54.38C38.2426 54.38 38.4523 54.3777 38.65 54.3704C38.7033 54.3685 38.7558 54.3662 38.8073 54.3634C39.0999 54.3478 39.3648 54.3188 39.6051 54.2666C39.8041 54.2234 39.9863 54.1643 40.1533 54.0837C40.2035 54.0595 40.2524 54.0333 40.3 54.005C40.3059 54.0015 40.3117 53.9979 40.3175 53.9944C40.5244 53.867 40.6728 53.7171 40.7783 53.5292C40.7786 53.5286 40.7789 53.5281 40.7792 53.5275C40.8136 53.466 40.8434 53.4004 40.8692 53.3302C40.8746 53.3154 40.8799 53.3003 40.885 53.285C40.9945 53.3726 41.112 53.4726 41.2307 53.5786C41.3244 53.6621 41.4188 53.7494 41.5108 53.8372C41.7816 54.0956 42.0309 54.3586 42.175 54.545C42.3306 54.331 42.4734 54.1011 42.6043 53.8581C42.7155 53.6518 42.8182 53.4361 42.9129 53.2128C42.9364 53.1574 42.9594 53.1015 42.9819 53.0452C43.0498 52.8754 43.1134 52.7014 43.173 52.5242C43.2133 52.4043 43.2517 52.2828 43.2883 52.16C43.2972 52.1301 43.3061 52.1001 43.3148 52.07C43.3647 51.8977 43.4112 51.723 43.4544 51.5466C43.5264 51.2525 43.5895 50.9535 43.6445 50.6525C43.7112 50.2878 43.7662 49.9201 43.8112 49.5547C43.8202 49.482 43.8287 49.4094 43.8369 49.3369C43.8504 49.2175 43.8629 49.0985 43.8744 48.98C43.9001 48.7146 43.921 48.4518 43.9378 48.1937C43.9403 48.1557 43.9427 48.1178 43.945 48.08H45.085V52.07C45.085 52.0803 45.0848 52.0903 45.0845 52.1C45.0782 52.2728 45.0139 52.3408 44.815 52.355C44.7196 52.355 44.5023 52.355 44.2476 52.3505C44.2445 52.3505 44.2415 52.3504 44.2385 52.3504C44.2377 52.3504 44.237 52.3504 44.2362 52.3503C44.2242 52.3501 44.2121 52.3499 44.2 52.3497C44.1855 52.3494 44.1709 52.3491 44.1562 52.3488C43.9542 52.3445 43.7358 52.3372 43.54 52.325C43.6548 52.5365 43.7721 52.8163 43.8761 53.1122C43.887 53.1432 43.8977 53.1743 43.9083 53.2056C44.0475 53.617 44.1584 54.0487 44.2 54.365C44.4172 54.365 44.6219 54.3629 44.815 54.3561C44.8632 54.3544 44.9107 54.3524 44.9575 54.3501C45.2366 54.3363 45.4907 54.3106 45.7233 54.2647C45.9282 54.2242 46.1163 54.1679 46.2902 54.09C46.3661 54.0559 46.4393 54.0178 46.51 53.975C46.7698 53.8109 46.9455 53.6062 47.0598 53.3412C47.1961 53.0248 47.245 52.6223 47.245 52.1V48.08H48.55V45.98H47.245V41.075H41.89V45.98H41.02V41.075H35.95V45.98H34.435V48.08ZM38.035 45.98H38.92V43.085H38.035V45.98ZM41.02 52.16C41.175 51.8163 41.302 51.4539 41.4061 51.08C41.5001 50.7423 41.5755 50.3952 41.636 50.044C41.6838 49.7668 41.7224 49.4871 41.7537 49.2075C41.7621 49.1316 41.7701 49.0558 41.7775 48.98C41.8072 48.678 41.8288 48.3769 41.845 48.08H41.02V52.16ZM44.005 45.98H45.085V43.085H44.005V45.98ZM14.5098 48.0176C14.5842 48.1706 14.6609 48.3215 14.74 48.47C14.8152 48.2996 14.887 48.1245 14.9555 47.945C14.9722 47.9013 14.9887 47.8573 15.005 47.8131C15.1033 47.5457 15.1945 47.2688 15.2783 46.9827C15.3522 46.7306 15.4205 46.4715 15.4831 46.2055C15.5077 46.1014 15.5313 45.9962 15.5541 45.89C15.5691 45.8201 15.5838 45.7497 15.598 45.6789C15.6193 45.5735 15.6397 45.4671 15.6592 45.3598C15.6842 45.2231 15.7077 45.0848 15.73 44.945H13.735L13.54 45.44C13.5585 45.5067 13.5774 45.5731 13.5967 45.6394C13.6174 45.71 13.6385 45.7805 13.66 45.8506C13.664 45.8638 13.6681 45.8769 13.6721 45.89C13.6927 45.9564 13.7136 46.0225 13.735 46.0883C13.7781 46.2212 13.8228 46.3531 13.8691 46.4838C13.9294 46.6542 13.9924 46.8227 14.0581 46.9891C14.0682 47.0147 14.0783 47.0402 14.0885 47.0657C14.1262 47.1595 14.1646 47.2528 14.2039 47.3453C14.2902 47.5486 14.3805 47.7485 14.4747 47.945C14.4863 47.9693 14.498 47.9935 14.5098 48.0176Z" fill="black"/>
</svg>
