{
	"asset":{
		"version":"2.0",
		"generator":"Created using the official Cinema 4D glTF Exporter 1.000x284978"
	},
	"scenes":[{
		"nodes":[0]
	}],
	"nodes":[{
		"name":"挤压",
		"translation":[0.0,
		109.8526611328125,
		0.0],
		"rotation":[0.0,
		0.0,
		0.0,
		-1.0],
		"scale":[1.0,
		1.0,
		1.0],
		"children":[1]
	},
	{
		"name":"挤压",
		"mesh":0
	}],
	"meshes":[{
		"name":"挤压",
		"primitives":[{
			"attributes":{
				"POSITION":1,
				"NORMAL":2,
				"TEXCOORD_0":3
			},
			"indices":0,
			"material":0
		}]
	}],
	"accessors":[{
		"bufferView":0,
		"type":"SCALAR",
		"componentType":5123,
		"count":7512,
		"byteOffset":0,
		"min":[0],
		"max":[2952]
	},
	{
		"bufferView":1,
		"type":"VEC3",
		"componentType":5126,
		"count":2953,
		"byteOffset":0,
		"min":[-122.81949615478516,
		-283.45697021484377,
		-10.0],
		"max":[156.5245819091797,
		-89.45745086669922,
		0.0]
	},
	{
		"bufferView":1,
		"type":"VEC3",
		"componentType":5126,
		"count":2953,
		"byteOffset":12,
		"min":[-1.0,
		-1.0,
		-1.0],
		"max":[1.0,
		1.0,
		1.0]
	},
	{
		"bufferView":1,
		"type":"VEC2",
		"componentType":5126,
		"count":2953,
		"byteOffset":24,
		"min":[-0.02166551537811756,
		-0.04999999701976776],
		"max":[1.061610221862793,
		1.6166666746139527]
	}],
	"bufferViews":[{
		"buffer":0,
		"byteOffset":0,
		"byteLength":15024,
		"target":34963
	},
	{
		"buffer":0,
		"byteOffset":15024,
		"byteLength":94496,
		"target":34962,
		"byteStride":32
	}],
	"buffers":[{
		"byteLength":109520,
		"uri":"data:application/octet-stream;base64,"
	}],
	"images":[{
		"uri":"data:image/jpeg;base64,"
	}],
	"samplers":[{
		"magFilter":9729,
		"minFilter":9729,
		"wrapS":10497,
		"wrapT":10497
	}],
	"materials":[{
		"pbrMetallicRoughness":{
			"baseColorTexture":{
				"index":0
			},
			"baseColorFactor":[0.75,
			0.75,
			0.75,
			1.0],
			"metallicFactor":1.0,
			"roughnessFactor":0.3
		},
		"emissiveFactor":[0.0,
		0.0,
		0.0],
		"alphaMode":"OPAQUE",
		"doubleSided":true,
		"name":"PBR"
	}],
	"textures":[{
		"sampler":0,
		"source":0
	}]
}