{
	"asset":{
		"generator":"Khronos glTF Blender I/O v3.5.30",
		"version":"2.0"
	},
	"extensionsUsed":[
		"KHR_materials_specular",
		"KHR_materials_ior"
	],
	"scene":0,
	"scenes":[
		{
			"name":"Scene",
			"nodes":[
				0
			]
		}
	],
	"nodes":[
		{
			"mesh":0,
			"name":"Curve",
			"rotation":[
				0.6779879331588745,
				0.2008291780948639,
				0.2008291780948639,
				0.6779879331588745
			],
			"scale":[
				2.452550172805786,
				2.452550172805786,
				2.452550172805786
			],
			"translation":[
				-0.01454906165599823,
				-0.037982769310474396,
				0.051578640937805176
			]
		}
	],
	"materials":[
		{
			"doubleSided":true,
			"extensions":{
				"KHR_materials_specular":{
					"specularColorFactor":[
						1.0218396394366172,
						1.0218396394366172,
						1.0218396394366172
					]
				},
				"KHR_materials_ior":{
					"ior":1.4500000476837158
				}
			},
			"name":"\u6750\u8d28",
			"pbrMetallicRoughness":{
				"baseColorTexture":{
					"index":0
				},
				"metallicFactor":0,
				"roughnessFactor":0.5
			}
		}
	],
	"meshes":[
		{
			"name":"Mesh",
			"primitives":[
				{
					"attributes":{
						"POSITION":0,
						"TEXCOORD_0":1,
						"NORMAL":2
					},
					"indices":3,
					"material":0
				}
			]
		}
	],
	"textures":[
		{
			"sampler":0,
			"source":0
		}
	],
	"images":[
		{
			"bufferView":4,
			"mimeType":"image/jpeg",
			"name":"a"
		}
	],
	"accessors":[
		{
			"bufferView":0,
			"componentType":5126,
			"count":1222,
			"max":[
				0.022610818967223167,
				0.0010619021486490965,
				-0.00014605595788452774
			],
			"min":[
				0.00033515383256599307,
				0,
				-0.025951595976948738
			],
			"type":"VEC3"
		},
		{
			"bufferView":1,
			"componentType":5126,
			"count":1222,
			"type":"VEC2"
		},
		{
			"bufferView":2,
			"componentType":5126,
			"count":1222,
			"type":"VEC3"
		},
		{
			"bufferView":3,
			"componentType":5123,
			"count":2436,
			"type":"SCALAR"
		}
	],
	"bufferViews":[
		{
			"buffer":0,
			"byteLength":14664,
			"byteOffset":0,
			"target":34962
		},
		{
			"buffer":0,
			"byteLength":9776,
			"byteOffset":14664,
			"target":34962
		},
		{
			"buffer":0,
			"byteLength":14664,
			"byteOffset":24440,
			"target":34962
		},
		{
			"buffer":0,
			"byteLength":4872,
			"byteOffset":39104,
			"target":34963
		},
		{
			"buffer":0,
			"byteLength":20963,
			"byteOffset":43976
		}
	],
	"samplers":[
		{
			"magFilter":9729,
			"minFilter":9987
		}
	],
	"buffers":[
		{
			"byteLength":64940,
			"uri":"data:application/octet-stream;base64,"
		}
	]
}
