<svg width="753" height="536" viewBox="0 0 753 536" fill="none" xmlns="http://www.w3.org/2000/svg">
<g opacity="0.8">
<g filter="url(#filter0_f_329_588)">
<circle cx="377.003" cy="268.24" r="123.54" fill="#F06425"/>
</g>
<path fill-rule="evenodd" clip-rule="evenodd" d="M445.339 0.954834L376.718 268.24L308.097 0.954834H445.339ZM376.836 268.499L588.915 121.786L523.457 56.3282L376.757 268.391L376.718 268.24L376.679 268.39L376.363 268.171L376.632 268.56L376.346 268.612L376.575 268.653L376.54 268.703L376.605 268.659L376.61 268.66L308.097 535.525H445.339L376.899 268.947L523.28 480.546L588.738 415.088L377.234 268.773L753 337.233V199.991L376.864 268.517L376.836 268.499ZM376.346 268.24L0.249939 336.539L0.249948 199.941L376.346 268.24ZM376.363 268.526L229.558 480.481L164.408 415.33L376.363 268.526ZM376.541 267.994L164.585 121.189L229.736 56.0385L376.541 267.994Z" fill="url(#paint0_radial_329_588)"/>
</g>
<defs>
<filter id="filter0_f_329_588" x="181.464" y="72.6997" width="391.08" height="391.08" filterUnits="userSpaceOnUse" color-interpolation-filters="sRGB">
<feFlood flood-opacity="0" result="BackgroundImageFix"/>
<feBlend mode="normal" in="SourceGraphic" in2="BackgroundImageFix" result="shape"/>
<feGaussianBlur stdDeviation="36" result="effect1_foregroundBlur_329_588"/>
</filter>
<radialGradient id="paint0_radial_329_588" cx="0" cy="0" r="1" gradientUnits="userSpaceOnUse" gradientTransform="translate(376.625 268.24) rotate(90) scale(216.158 304.381)">
<stop stop-color="white"/>
<stop offset="1" stop-color="white" stop-opacity="0"/>
</radialGradient>
</defs>
</svg>
